{
  "source": "C:\\Users\\Peter\\Desktop\\stuff\\MIUN\\quantitative_research\\video_compression\\videos\\BVI-HD\\TreeGrassFamily_1920x1080_30fps.mp4",
  "output": "C:\\Users\\Peter\\Desktop\\stuff\\MIUN\\quantitative_research\\video_compression\\compressed_videos\\BVI-HD\\h264\\12\\TreeGrassFamily_1920x1080_30fps_h264.mp4",
  "codec": "h264",
  "ok": "Input #0, mov,mp4,m4a,3gp,3g2,mj2, from 'C:\\Users\\Peter\\Desktop\\stuff\\MIUN\\quantitative_research\\video_compression\\videos\\BVI-HD\\TreeGrassFamily_1920x1080_30fps.mp4':\n  Metadata:\n    major_brand     : isom\n    minor_version   : 512\n    compatible_brands: isomiso2avc1mp41\n    encoder         : Lavf54.28.101\n  Duration: 00:00:05.00, start: 0.000000, bitrate: 331787 kb/s\n  Stream #0:0[0x1](und): Video: h264 (High 4:4:4 Predictive) (avc1 / 0x31637661), yuv420p(progressive), 1920x1080, 331784 kb/s, 30 fps, 30 tbr, 30 tbn (default)\n    Metadata:\n      handler_name    : VideoHandler\n      vendor_id       : [0][0][0][0]\n[out#0/mp4 @ 00000255d5b39b40] Codec AVOption b:a (set bitrate (in bits/s)) has not been used for any stream. The most likely reason is either wrong type (e.g. a video option with no video streams) or that it is a private option of some decoder which was not actually used for any stream.\nStream mapping:\n  Stream #0:0 -> #0:0 (h264 (native) -> h264 (libx264))\nPress [q] to stop, [?] for help\n[libx264 @ 00000255d69175c0] using cpu capabilities: MMX2 SSE2Fast SSSE3 SSE4.2 AVX FMA3 BMI2 AVX2\n[libx264 @ 00000255d69175c0] profile High, level 5.0, 4:2:0, 8-bit\n[libx264 @ 00000255d69175c0] 264 - core 165 r3222 b35605a - H.264/MPEG-4 AVC codec - Copyleft 2003-2025 - http://www.videolan.org/x264.html - options: cabac=1 ref=5 deblock=1:0:0 analyse=0x3:0x113 me=hex subme=8 psy=1 psy_rd=1.00:0.00 mixed_ref=1 me_range=16 chroma_me=1 trellis=2 8x8dct=1 cqm=0 deadzone=21,11 fast_pskip=1 chroma_qp_offset=-2 threads=18 lookahead_threads=3 sliced_threads=0 nr=0 decimate=1 interlaced=0 bluray_compat=0 constrained_intra=0 bframes=3 b_pyramid=2 b_adapt=1 b_bias=0 direct=3 weightb=1 open_gop=0 weightp=2 keyint=250 keyint_min=25 scenecut=40 intra_refresh=0 rc_lookahead=50 rc=cbr mbtree=1 bitrate=12000 ratetol=1.0 qcomp=0.60 qpmin=0 qpmax=69 qpstep=4 vbv_maxrate=12000 vbv_bufsize=12000 nal_hrd=none filler=0 ip_ratio=1.40 aq=1:1.00\nOutput #0, mp4, to 'C:\\Users\\Peter\\Desktop\\stuff\\MIUN\\quantitative_research\\video_compression\\compressed_videos\\BVI-HD\\h264\\12\\TreeGrassFamily_1920x1080_30fps_h264.mp4':\n  Metadata:\n    major_brand     : isom\n    minor_version   : 512\n    compatible_brands: isomiso2avc1mp41\n    encoder         : Lavf62.3.100\n  Stream #0:0(und): Video: h264 (avc1 / 0x31637661), yuv420p(tv, progressive), 1920x1080, q=2-31, 12000 kb/s, 30 fps, 15360 tbn (default)\n    Metadata:\n      encoder         : Lavc62.11.100 libx264\n      handler_name    : VideoHandler\n      vendor_id       : [0][0][0][0]\n    Side data:\n      cpb: bitrate max/min/avg: 12000000/0/12000000 buffer size: 12000000 vbv_delay: N/A\nframe=    0 fps=0.0 q=0.0 size=       0KiB time=N/A bitrate=N/A speed=N/A elapsed=0:00:00.52    \nframe=    0 fps=0.0 q=0.0 size=       0KiB time=N/A bitrate=N/A speed=N/A elapsed=0:00:01.09    \nframe=    0 fps=0.0 q=0.0 size=       0KiB time=N/A bitrate=N/A speed=N/A elapsed=0:00:01.66    \nframe=    1 fps=0.5 q=33.0 size=       0KiB time=N/A bitrate=N/A speed=N/A elapsed=0:00:02.22    \nframe=   11 fps=3.9 q=33.0 size=     512KiB time=00:00:00.23 bitrate=17977.3kbits/s speed=0.0818x elapsed=0:00:02.85    \nframe=   24 fps=6.9 q=31.0 size=    1024KiB time=00:00:00.66 bitrate=12583.5kbits/s speed=0.193x elapsed=0:00:03.45    \nframe=   41 fps= 10 q=31.0 size=    1536KiB time=00:00:01.30 bitrate=9679.5kbits/s speed=0.324x elapsed=0:00:04.01    \nframe=   49 fps= 11 q=31.0 size=    2048KiB time=00:00:01.56 bitrate=10709.1kbits/s speed=0.344x elapsed=0:00:04.55    \nframe=   69 fps= 14 q=31.0 size=    2816KiB time=00:00:02.23 bitrate=10329.4kbits/s speed=0.441x elapsed=0:00:05.05    \nframe=   85 fps= 15 q=32.0 size=    3840KiB time=00:00:02.76 bitrate=11370.2kbits/s speed=0.496x elapsed=0:00:05.58    \nframe=   97 fps= 16 q=32.0 size=    4352KiB time=00:00:03.16 bitrate=11258.5kbits/s speed=0.518x elapsed=0:00:06.11    \nframe=  109 fps= 16 q=31.0 size=    4864KiB time=00:00:03.56 bitrate=11171.9kbits/s speed=0.538x elapsed=0:00:06.62    \nframe=  129 fps= 18 q=28.0 size=    5888KiB time=00:00:04.23 bitrate=11394.1kbits/s speed=0.593x elapsed=0:00:07.14    \nframe=  142 fps= 19 q=-1.0 size=    6400KiB time=00:00:04.66 bitrate=11234.8kbits/s speed=0.609x elapsed=0:00:07.66    \n[mp4 @ 00000255d5b415c0] Starting second pass: moving the moov atom to the beginning of the file\n[out#0/mp4 @ 00000255d5b39b40] video:7123KiB audio:0KiB subtitle:0KiB other streams:0KiB global headers:0KiB muxing overhead: 0.037333%\nframe=  150 fps= 19 q=-1.0 Lsize=    7126KiB time=00:00:04.93 bitrate=11832.3kbits/s speed=0.634x elapsed=0:00:07.77    \n[libx264 @ 00000255d69175c0] frame I:1     Avg QP:28.05  size:203444\n[libx264 @ 00000255d69175c0] frame P:38    Avg QP:30.49  size: 95561\n[libx264 @ 00000255d69175c0] frame B:111   Avg QP:33.90  size: 31156\n[libx264 @ 00000255d69175c0] consecutive B-frames:  1.3%  0.0%  0.0% 98.7%\n[libx264 @ 00000255d69175c0] mb I  I16..4:  0.6% 95.6%  3.8%\n[libx264 @ 00000255d69175c0] mb P  I16..4:  0.0% 11.2%  0.3%  P16..4: 36.9% 28.6% 12.7%  0.0%  0.0%    skip:10.3%\n[libx264 @ 00000255d69175c0] mb B  I16..4:  0.0%  0.9%  0.0%  B16..8: 30.9% 10.6%  4.5%  direct:11.5%  skip:41.7%  L0:39.0% L1:41.8% BI:19.2%\n[libx264 @ 00000255d69175c0] 8x8 transform intra:96.8% inter:74.7%\n[libx264 @ 00000255d69175c0] direct mvs  spatial:91.0% temporal:9.0%\n[libx264 @ 00000255d69175c0] coded y,uvDC,uvAC intra: 95.0% 60.0% 12.6% inter: 33.9% 7.8% 0.1%\n[libx264 @ 00000255d69175c0] i16 v,h,dc,p: 22% 10%  9% 59%\n[libx264 @ 00000255d69175c0] i8 v,h,dc,ddl,ddr,vr,hd,vl,hu: 10%  3%  5% 15% 11% 10%  9% 26% 11%\n[libx264 @ 00000255d69175c0] i4 v,h,dc,ddl,ddr,vr,hd,vl,hu:  8%  3%  4% 15% 12% 12% 11% 22% 12%\n[libx264 @ 00000255d69175c0] i8c dc,h,v,p: 50% 18% 19% 13%\n[libx264 @ 00000255d69175c0] Weighted P-Frames: Y:0.0% UV:0.0%\n[libx264 @ 00000255d69175c0] ref P L0: 42.0% 12.1% 23.9%  8.9% 13.1%\n[libx264 @ 00000255d69175c0] ref B L0: 81.8% 11.4%  4.4%  2.5%\n[libx264 @ 00000255d69175c0] ref B L1: 97.2%  2.8%\n[libx264 @ 00000255d69175c0] kb/s:11668.91\n",
  "seconds": 8.232028722763062,
  "probe_out": {}
}